Patient4_TMGait_0pt6_02_right_26_EMG.mot
version=1
nRows=20
nColumns=33
inDegrees=no
endheader
time	1LAddLong	2LGlutMax	3LGlutMed	4LIliopsoas	5LSemiMemb	6LBicFemLong	7LRecFem	8LVastMed	9LVastLat	10LGasMed	11LTibAnt	12lTibPost	13LPeroneusLong	14LSol	15LExtDigLong	16LFlexDigLong	17RAddLong	18RGlutMax	19RGlutMed	20RIliopsoas	21RSemiMemb	22RBicFemLong	23RRecFem	24RVastMed	25RVastLat	26RGasMed	27RTibAnt	28RTibPost	29RPeroneusLong	30RSol	31RExtDigLong	32RFlexDigLong
32.055	0.011139	-0.008392	0.032196	-0.005341	0.019684	0.36575	0.071716	0.033569	0.11169	0.007172	0.016937	0.004425	-0.039978	0.035858	-0.002136	0.002136	0.059814	-0.14908	0.096741	0.15274	-0.077209	0.38513	-0.19592	0.037231	-0.000458	0.003662	0.029297	0.00351	-0.21637	-0.18341	-0.005035	-0.012512
32.056	-0.003662	0.020752	0.05127	-0.014038	0.003052	0.18478	0.09613	0.022888	0.1535	0.004425	0.000458	-0.00473	-0.00946	0.037231	0.014496	-0.001373	0.076599	-0.11688	0.081177	0.20996	-0.22568	0.27145	-0.1506	0.042267	0.029907	0.027161	0.02243	-0.00412	-0.28534	-0.15335	-0.004425	-0.008698
32.057	-0.019684	0.027161	0.052338	-0.038757	-0.019073	-0.15411	0.08255	0.015411	0.23209	0.006256	-0.063934	0.00412	-0.011444	0.041199	0.017853	-0.005341	0.091095	-0.12833	-0.045624	0.12634	-0.26337	0.16281	-0.15472	0.034485	0.004272	0.027008	0.005951	0.001526	-0.19547	0.041656	-0.004578	-0.018005
32.058	-0.005341	-0.002594	0.047455	-0.024872	-0.10819	-0.27054	0.060883	0.019836	0.25742	0.0177	-0.07843	0.007172	-0.001678	0.021362	0.011292	-0.000458	0.030975	-0.19028	0.061951	0.033875	0.0914	0.043488	-0.16205	-0.029144	0.002441	0.006409	0.01236	0.00061	-0.052643	0.28961	-0.001984	-0.020447
32.059	-0.001373	0.031128	0.082092	-0.010986	-0.12116	-0.40329	0.018768	0.026703	0.22781	0.020142	-0.054169	0.002289	0.00824	0.013885	0.009766	0.00412	-0.046387	-0.0914	0.021515	-0.019073	0.18005	0.20294	-0.20401	-0.00473	-0.003357	-0.015106	0.004272	-0.005341	0.059204	0.36346	0.007782	-0.014954
32.06	-0.003204	-0.00824	0.076447	0.008087	-0.03891	-0.46036	-0.095978	0.034332	0.14481	-0.005341	-0.009613	0.00061	0.030518	-0.004425	-0.011139	0.007172	-0.081024	-0.09552	-0.11414	0.009613	0.11276	0.14923	-0.19974	-0.056915	0.004883	-0.026245	-0.021515	-0.010223	0.2269	0.29938	-0.001373	-0.009918
32.061	-0.015717	-0.13046	0.08728	0.019226	-0.001831	-0.4805	-0.11139	0.034332	0.22247	-0.009308	0.058136	-0.013428	0.046997	0.001831	-0.001831	0.001373	-0.073547	-0.19333	-0.08667	-0.070343	0.077057	0.14572	-0.15701	-0.019836	0.009003	-0.010376	0.002136	-0.008392	0.21332	0.39795	-0.002441	-0.010071
32.062	-0.014038	-0.17136	0.091705	-0.008087	-0.001221	-0.27008	0.046844	0.056152	0.040894	0.013885	0.080414	0.018158	-0.029144	0.018005	-0.018616	-0.001526	-0.080414	-0.1384	-0.10025	-0.14008	0.14221	0.026093	-0.16983	-0.01236	0.010529	-0.007935	0.037537	-0.003052	0.11322	0.33844	-0.002289	-0.013123
32.063	-0.016632	-0.14877	0.072479	0.012512	-0.037842	-0.11963	0.20157	0.080261	-0.22064	0.014343	0.1091	0.002289	-0.045624	0.022125	-0.047455	0.002747	-0.073242	-0.08728	0.024414	-0.14694	0.15625	0.058289	-0.16357	0.00824	0.0177	-0.028992	0.025635	0.017395	0.12054	0.12848	0.001373	-0.011902
32.064	-0.034332	-0.18188	0.062561	0.018005	-0.040436	-0.077667	0.26047	0.080872	-0.3331	0.004425	0.080566	-0.005493	-0.009613	0.032043	-0.020599	0.000458	-0.071411	-0.10956	0.20462	-0.096436	0.28351	0.1152	-0.1622	0.033569	-0.008545	-0.028229	0.045319	0.010986	0.14694	-0.022736	-0.001068	-0.008392
32.065	-0.0177	-0.20386	0.072174	-0.003967	0.019989	-0.080566	0.20981	0.049286	-0.12222	0.004578	0.033417	0.011444	-0.007935	0.05127	-0.000458	-0.006561	-0.05127	-0.061035	0.30579	-0.001831	0.30304	0.075684	-0.12253	0.02533	-0.028381	-0.016937	0.026398	0.002899	0.22598	-0.11414	-0.001678	-0.009613
32.066	0.015106	-0.24139	0.043182	-0.006714	0.027161	0.02243	0.12161	-0.003967	0.088654	-0.00946	-0.027618	0.004578	0.090485	0.03891	-0.005493	-0.003967	-0.033264	-0.14832	0.19196	0.02533	0.20966	0.10254	-0.10086	-0.008087	-0.032196	-0.019531	0.020905	-0.006256	0.22476	-0.07782	-0.001831	-0.002899
32.067	0.02533	-0.35202	0.014191	-0.020142	-0.06485	0.067444	0.022125	-0.023193	0.26169	-0.004578	-0.045776	-0.001221	0.070801	0.038757	0.020599	-0.00351	-0.035706	-0.1593	0.17136	-0.026245	0.12299	0.10803	-0.13199	0.005493	-0.011749	-0.006714	-0.00885	-0.000153	0.21805	0.011444	-0.006714	-0.001984
32.068	0.026855	-0.40268	0.012512	-0.022125	-0.019379	-0.11078	-0.044861	-0.040283	0.27115	0.012207	-0.015564	-0.003204	-0.03067	0.042725	0.016937	0.003357	-0.035553	-0.17151	0.15915	-0.063324	0.090942	0.013885	-0.092468	-0.01236	-0.0354	-0.001221	0.022736	0.00473	0.13504	0.032349	-0.002289	0.001373
32.069	0.027313	-0.4007	0.005035	-0.012665	0.071869	-0.37613	-0.093384	-0.042267	0.15671	0.022888	-0.010071	0.00351	-0.027924	0.033417	-0.019989	-0.001526	-0.02594	-0.17929	0.19684	-0.15137	0.1741	0.033569	-0.13092	-0.02121	-0.038757	0.002289	0.007629	-0.001373	0.11765	0.030518	-0.001678	-0.002289
32.07	0.028992	-0.39536	-0.010529	-0.023804	0.05722	-0.39459	-0.007477	-0.024261	0.18677	0.018616	-0.025482	0.003052	-0.047607	0.029907	-0.036316	-0.010223	-0.018616	-0.21912	0.17731	-0.16861	0.20157	0.029602	-0.13153	0.014496	-0.02533	0.009155	-0.007629	-0.00824	0.10269	-0.062256	0.001831	-0.000916
32.071	0.011597	-0.43625	-0.007935	0.009766	0.000305	-0.22003	0.16144	-0.007019	0.13672	-0.013275	0.058289	0.00351	-0.032654	0.039673	-0.028534	-0.016632	0.001526	-0.18784	0.18906	-0.036774	0.051727	0.033722	-0.13138	-0.026093	-0.024109	0.018768	-0.1532	-0.008087	0.003204	-0.15533	-0.001678	-0.001526
32.072	0.006714	-0.47989	-0.029297	0.026703	-0.057831	-0.17532	0.25269	0.003357	-0.001068	-0.003662	0.06485	0.002136	-0.030975	0.033875	0.010529	0.002441	0.030823	-0.15762	0.065002	0.13046	-0.21606	0.019684	-0.13397	-0.029755	-0.038147	0.032501	-0.16312	-0.002747	-0.054626	-0.20935	-0.003357	-0.005646
32.073	0.009003	-0.45578	-0.019073	0.006561	-0.081329	-0.040436	0.20859	0.006104	-0.12299	0.017242	0.025024	0.001373	0.090179	0.068665	-0.016327	-0.006714	0.053864	-0.20264	0.000305	0.28854	-0.051727	-0.063782	-0.09613	-0.10773	-0.063171	0.041046	0.26154	-0.001373	-0.054169	-0.23682	-0.002747	-0.009613
32.074	0.017853	-0.40268	0.012512	0.000763	-0.081635	0.168	0.1149	-0.018616	-0.2002	-0.010223	-0.016785	0.003357	0.072784	0.061646	-0.007324	0.005188	0.053101	-0.24139	0.091858	0.22308	-0.022736	-0.002899	-0.08606	-0.090485	-0.069427	0.050812	0.30533	-0.001221	-0.040894	-0.22186	-0.00061	-0.007935
